<svg viewBox="0 0 24 24" xmlns="http://www.w3.org/2000/svg" fill="#000000" clip-rule="evenodd" fill-rule="evenodd">
    <path
        d="M13.1893213,12.1473482 C13.1893213,15.5975556 10.4113636,18.3944856 6.98476606,18.3944856 C3.55816851,18.3944856 0.78,15.5975556 0.78,12.1473482 C0.78,8.69714075 3.55795771,5.9 6.98476606,5.9 C10.4115744,5.9 13.1893213,8.69714075 13.1893213,12.1473482 M19.995929,12.1473482 C19.995929,15.3949743 18.6069502,18.0287429 16.893546,18.0287429 C15.1801418,18.0287429 13.791163,15.3949743 13.791163,12.1473482 C13.791163,8.89972212 15.179931,6.26595345 16.8933352,6.26595345 C18.6067394,6.26595345 19.9957182,8.89887891 19.9957182,12.1473482 M22.78,12.1473482 C22.78,15.0564252 22.2915702,17.4161504 21.6888853,17.4161504 C21.0862005,17.4161504 20.5979815,15.0570576 20.5979815,12.1473482 C20.5979815,9.23763882 21.0864113,6.87854604 21.6888853,6.87854604 C22.2913594,6.87854604 22.78,9.23742802 22.78,12.1473482" />
</svg>