<?xml version="1.0" encoding="UTF-8"?>
<svg width="77px" height="32px" viewBox="0 0 77 32" version="1.1" xmlns="http://www.w3.org/2000/svg" xmlns:xlink="http://www.w3.org/1999/xlink">
    <title>Group</title>
    <defs>
        <linearGradient x1="100%" y1="5.20391748e-15%" x2="-2.25343208e-14%" y2="100%" id="linearGradient-1">
            <stop stop-color="#F97316" offset="0%"></stop>
            <stop stop-color="#EF4444" offset="100%"></stop>
        </linearGradient>
    </defs>
    <g id="Page-1" stroke="none" stroke-width="1" fill="none" fill-rule="evenodd">
        <g id="Extensions" transform="translate(-114.000000, -134.000000)">
            <g id="Group" transform="translate(114.000000, 134.000000)">
                <g id="Twitter">
                    <rect id="Rectangle" fill="url(#linearGradient-1)" x="0" y="0" width="32" height="32" rx="8"></rect>
                    <g id="Group-3" transform="translate(4.250000, 4.250000)">
                        <rect id="Rectangle" x="0" y="0.369230769" width="24" height="23.6307692"></rect>
                        <path d="M3.51529827,0 C4.38657019,0 5.05091504,0.196105969 5.5083328,0.588317906 C5.96575055,0.980529844 6.35782292,1.55795297 6.68454989,2.3205873 L12.4349446,15.6557932 L13.7853173,12.6738665 C14.1120443,11.9112322 14.5041167,11.3392564 14.9615344,10.9579393 C15.4189522,10.5766221 16.0615152,10.3859635 16.8892236,10.3859635 C17.5644593,10.3859635 18.130786,10.5602799 18.5882038,10.9089128 C19.0456216,11.2575456 19.3342304,11.7314684 19.4540303,12.330681 C19.5738302,12.9298937 19.4594757,13.6108172 19.110967,14.3734515 L15.5715235,21.4409192 C15.2447965,22.2035536 14.8254969,22.7591871 14.3136247,23.10782 C13.8017524,23.4564528 13.142853,23.6307692 12.3369265,23.6307692 C11.5092182,23.6307692 10.8394279,23.4564528 10.3275556,23.10782 C9.81568336,22.7591871 9.38549285,22.2035536 9.03698408,21.4409192 L1.13019138,3.98748803 C0.781682615,3.22485371 0.672773625,2.53848282 0.803464413,1.92837536 C0.934155202,1.3182679 1.23910037,0.844345143 1.71829993,0.506607086 C2.19749949,0.168869029 2.79649894,0 3.51529827,0 Z M19.5,3.32307692 C21.1568542,3.32307692 22.5,4.64555889 22.5,6.27692308 C22.5,7.90828726 21.1568542,9.23076923 19.5,9.23076923 C17.8431458,9.23076923 16.5,7.90828726 16.5,6.27692308 C16.5,4.64555889 17.8431458,3.32307692 19.5,3.32307692 Z" id="Combined-Shape" fill="#FFFFFF" fill-rule="nonzero"></path>
                    </g>
                </g>
                <text id="rite" font-family="Nunito-Black, Nunito" font-size="24" font-weight="800" fill="#FFFFFF">
                    <tspan x="36" y="24">rite</tspan>
                </text>
            </g>
        </g>
    </g>
</svg>