<?xml version="1.0" encoding="UTF-8"?>
<svg width="76px" height="32px" viewBox="0 0 76 32" version="1.1" xmlns="http://www.w3.org/2000/svg" xmlns:xlink="http://www.w3.org/1999/xlink">
    <title>Group</title>
    <defs>
        <linearGradient x1="100%" y1="5.20391748e-15%" x2="-2.25343208e-14%" y2="100%" id="linearGradient-1">
            <stop stop-color="#F97316" offset="0%"></stop>
            <stop stop-color="#EF4444" offset="100%"></stop>
        </linearGradient>
    </defs>
    <g id="Page-1" stroke="none" stroke-width="1" fill="none" fill-rule="evenodd">
        <g id="Extensions" transform="translate(-114.000000, -134.000000)">
            <g id="Group" transform="translate(114.000000, 134.000000)">
                <g id="Twitter">
                    <rect id="Rectangle" fill="url(#linearGradient-1)" x="0" y="0" width="32" height="32" rx="8"></rect>
                    <g id="Group-3" transform="translate(4.250000, 4.250000)">
                        <rect id="Rectangle" x="0" y="0.369230769" width="24" height="23.6307692"></rect>
                        <path d="M3.51529827,0 C4.38657019,0 5.05091504,0.196105969 5.5083328,0.588317906 C5.96575055,0.980529844 6.35782292,1.55795297 6.68454989,2.3205873 L12.4349446,15.6557932 L13.7853173,12.6738665 C14.1120443,11.9112322 14.5041167,11.3392564 14.9615344,10.9579393 C15.4189522,10.5766221 16.0615152,10.3859635 16.8892236,10.3859635 C17.5644593,10.3859635 18.130786,10.5602799 18.5882038,10.9089128 C19.0456216,11.2575456 19.3342304,11.7314684 19.4540303,12.330681 C19.5738302,12.9298937 19.4594757,13.6108172 19.110967,14.3734515 L15.5715235,21.4409192 C15.2447965,22.2035536 14.8254969,22.7591871 14.3136247,23.10782 C13.8017524,23.4564528 13.142853,23.6307692 12.3369265,23.6307692 C11.5092182,23.6307692 10.8394279,23.4564528 10.3275556,23.10782 C9.81568336,22.7591871 9.38549285,22.2035536 9.03698408,21.4409192 L1.13019138,3.98748803 C0.781682615,3.22485371 0.672773625,2.53848282 0.803464413,1.92837536 C0.934155202,1.3182679 1.23910037,0.844345143 1.71829993,0.506607086 C2.19749949,0.168869029 2.79649894,0 3.51529827,0 Z M19.5,3.32307692 C21.1568542,3.32307692 22.5,4.64555889 22.5,6.27692308 C22.5,7.90828726 21.1568542,9.23076923 19.5,9.23076923 C17.8431458,9.23076923 16.5,7.90828726 16.5,6.27692308 C16.5,4.64555889 17.8431458,3.32307692 19.5,3.32307692 Z" id="Combined-Shape" fill="#FFFFFF" fill-rule="nonzero"></path>
                    </g>
                </g>
                <g id="rite" transform="translate(37.248000, 6.168000)" fill="#FFFFFF" fill-rule="nonzero">
                    <path d="M2.184,18.048 C0.728,18.048 0,17.328 0,15.888 L0,7.944 C0,6.52 0.696,5.808 2.088,5.808 C2.744,5.808 3.252,5.992 3.612,6.36 C3.972,6.728 4.152,7.256 4.152,7.944 L4.152,8.016 C4.424,7.328 4.864,6.784 5.472,6.384 C6.08,5.984 6.8,5.776 7.632,5.76 C8.096,5.744 8.444,5.86 8.676,6.108 C8.908,6.356 9.032,6.816 9.048,7.488 C9.048,8.064 8.928,8.52 8.688,8.856 C8.448,9.192 7.992,9.392 7.32,9.456 L6.768,9.504 C5.92,9.584 5.304,9.82 4.92,10.212 C4.536,10.604 4.344,11.184 4.344,11.952 L4.344,15.888 C4.344,17.328 3.624,18.048 2.184,18.048 Z" id="Path"></path>
                    <path d="M12.528,4.104 C11.776,4.104 11.196,3.928 10.788,3.576 C10.38,3.224 10.176,2.712 10.176,2.04 C10.176,1.384 10.38,0.88 10.788,0.528 C11.196,0.176 11.776,0 12.528,0 C14.112,0 14.904,0.68 14.904,2.04 C14.904,2.712 14.7,3.224 14.292,3.576 C13.884,3.928 13.296,4.104 12.528,4.104 Z M12.528,18.048 C11.84,18.048 11.316,17.848 10.956,17.448 C10.596,17.048 10.416,16.472 10.416,15.72 L10.416,8.136 C10.416,7.384 10.596,6.808 10.956,6.408 C11.316,6.008 11.84,5.808 12.528,5.808 C13.216,5.808 13.748,6.008 14.124,6.408 C14.5,6.808 14.688,7.384 14.688,8.136 L14.688,15.72 C14.688,16.472 14.504,17.048 14.136,17.448 C13.768,17.848 13.232,18.048 12.528,18.048 Z" id="Shape"></path>
                    <path d="M23.352,18.096 C21.56,18.096 20.232,17.68 19.368,16.848 C18.504,16.016 18.072,14.76 18.072,13.08 L18.072,9.168 L17.256,9.168 C16.184,9.168 15.648,8.64 15.648,7.584 C15.648,6.544 16.184,6.024 17.256,6.024 L18.072,6.024 L18.072,4.536 C18.072,3.832 18.256,3.296 18.624,2.928 C18.992,2.56 19.52,2.376 20.208,2.376 C21.632,2.376 22.344,3.096 22.344,4.536 L22.344,6.024 L24.312,6.024 C25.4,6.024 25.944,6.544 25.944,7.584 C25.944,8.64 25.4,9.168 24.312,9.168 L22.344,9.168 L22.344,12.936 C22.344,14.088 22.928,14.664 24.096,14.664 C24.32,14.664 24.536,14.64 24.744,14.592 C24.952,14.544 25.144,14.52 25.32,14.52 C25.576,14.504 25.784,14.58 25.944,14.748 C26.104,14.916 26.184,15.296 26.184,15.888 C26.184,16.368 26.112,16.772 25.968,17.1 C25.824,17.428 25.568,17.664 25.2,17.808 C24.976,17.888 24.672,17.956 24.288,18.012 C23.904,18.068 23.592,18.096 23.352,18.096 Z" id="Path"></path>
                    <path d="M33.696,18.096 C32.256,18.096 31.012,17.844 29.964,17.34 C28.916,16.836 28.112,16.12 27.552,15.192 C26.992,14.264 26.712,13.168 26.712,11.904 C26.712,10.704 26.98,9.64 27.516,8.712 C28.052,7.784 28.788,7.06 29.724,6.54 C30.66,6.02 31.728,5.76 32.928,5.76 C34.112,5.76 35.14,6.008 36.012,6.504 C36.884,7 37.556,7.708 38.028,8.628 C38.5,9.548 38.736,10.624 38.736,11.856 C38.736,12.48 38.368,12.792 37.632,12.792 L30.792,12.792 C30.936,13.56 31.256,14.112 31.752,14.448 C32.248,14.784 32.936,14.952 33.816,14.952 C34.152,14.952 34.552,14.912 35.016,14.832 C35.48,14.752 35.92,14.624 36.336,14.448 C36.848,14.256 37.28,14.252 37.632,14.436 C37.984,14.62 38.22,14.9 38.34,15.276 C38.46,15.652 38.444,16.036 38.292,16.428 C38.14,16.82 37.84,17.12 37.392,17.328 C36.832,17.6 36.236,17.796 35.604,17.916 C34.972,18.036 34.336,18.096 33.696,18.096 Z M33.12,8.52 C32.48,8.52 31.956,8.712 31.548,9.096 C31.14,9.48 30.88,10.04 30.768,10.776 L35.232,10.776 C35.184,10.024 34.98,9.46 34.62,9.084 C34.26,8.708 33.76,8.52 33.12,8.52 Z" id="Shape"></path>
                </g>
            </g>
        </g>
    </g>
</svg>